<svg xmlns="http://www.w3.org/2000/svg" width="2381" height="2500" viewBox="17.6 76.75 314.8 330.5" id="opel">
  <linearGradient id="a" x1="-4384.692" x2="-4167.129" y1="225.637" y2="255.284" gradientTransform="translate(4458.79 -98.281)" gradientUnits="userSpaceOnUse">
    <stop offset="0" stop-color="#4f5855"></stop>
    <stop offset="1" stop-color="#f7f7fa"></stop>
  </linearGradient>
  <path fill="url(#a)" stroke="#3b4949" stroke-width=".5" d="M175 90c-53.372 0-97.879 38.08-107.875 88.531l5.75-2.969C83.897 129.374 125.451 95 175 95c57.96 0 105 47.04 105 105 0 1.802-.034 3.598-.125 5.375l4.812 2.812c.198-2.701.312-5.437.312-8.188C285 139.28 235.72 90 175 90z"></path>
  <linearGradient id="b" x1="-4404.477" x2="-4160.789" y1="241.109" y2="241.109" gradientTransform="translate(4458.79 -98.281)" gradientUnits="userSpaceOnUse">
    <stop offset="0" stop-color="#d7dcdf"></stop>
    <stop offset=".2" stop-color="#d6dade"></stop>
    <stop offset=".67" stop-color="#dedfe1"></stop>
    <stop offset="1" stop-color="#3a4a49"></stop>
  </linearGradient>
  <path fill="url(#b)" stroke="#3b4949" stroke-width=".5" d="M175 77c-59.749 0-109.586 42.678-120.688 99.188l4.562 2.75C68.817 123.842 117.053 82 175 82c65.137 0 118 52.864 118 118 0 2.916-.104 5.794-.312 8.656l5.125-2.062c.115-2.188.188-4.377.188-6.595C298 132.104 242.896 77 175 77z"></path>
  <linearGradient id="c" x1="-4373.979" x2="-4185.398" y1="361.42" y2="307.776" gradientTransform="translate(4458.79 -98.281)" gradientUnits="userSpaceOnUse">
    <stop offset="0" stop-color="#4f5a57"></stop>
    <stop offset=".15" stop-color="#969e9d"></stop>
    <stop offset=".7" stop-color="#dee2e3"></stop>
    <stop offset="1" stop-color="#666b6f"></stop>
  </linearGradient>
  <path fill="url(#c)" stroke="#3b4949" stroke-width=".5" d="M65.313 191.781A111.253 111.253 0 0 0 65 200c0 60.722 49.279 110 110 110 53.383 0 97.891-38.096 107.875-88.562l-5.75 3.031C266.093 270.642 224.537 305 175 305c-57.96 0-105-47.04-105-105 0-1.79.036-3.575.125-5.344l-4.812-2.875z"></path>
  <linearGradient id="d" x1="-4377.514" x2="-4230.302" y1="256.573" y2="386.069" gradientTransform="translate(4458.79 -98.281)" gradientUnits="userSpaceOnUse">
    <stop offset="0" stop-color="#667173"></stop>
    <stop offset=".15" stop-color="#e0e0e1"></stop>
    <stop offset=".3" stop-color="#e0e0e1"></stop>
    <stop offset="1" stop-color="#3b4b4a"></stop>
  </linearGradient>
  <path fill="url(#d)" stroke="#3b4949" stroke-width=".5" d="M57.313 191.344l-5.125 2.062A124.263 124.263 0 0 0 52 200c0 67.896 55.104 123 123 123 59.737 0 109.573-42.66 120.688-99.155l-4.594-2.595C281.076 276.255 232.882 318 175 318c-65.137 0-118-52.862-118-118 0-2.915.104-5.794.313-8.656z"></path>
  <path fill="#b4bec2" d="M18 191l8-4 4-5-2-5-10 14z"></path>
  <linearGradient id="e" x1="-4431.04" x2="-4215.54" y1="274.281" y2="274.281" gradientTransform="translate(4458.79 -98.281)" gradientUnits="userSpaceOnUse">
    <stop offset="0" stop-color="#b1bcc0"></stop>
    <stop offset="1" stop-color="#848e91"></stop>
  </linearGradient>
  <path fill="url(#e)" d="M243 170l-17 7-196 5-2-5 26.285-.856 4.611 2.63 8.18-.202 5.824-3.034L243 170z"></path>
  <path fill="#3b4949" d="M162 195l-16 5-75.864-5.334-4.842-2.872-7.971-.444-5.134 2.056L18 191l8-4 136 8z"></path>
  <linearGradient id="f" x1="-4352.099" x2="-4297.099" y1="327.796" y2="292.796" gradientTransform="translate(4458.79 -98.281)" gradientUnits="userSpaceOnUse">
    <stop offset="0" stop-color="#c2cfd6"></stop>
    <stop offset="1" stop-color="#dce3e6"></stop>
  </linearGradient>
  <path fill="url(#f)" d="M162 195l-16 5-39 30 17-7 38-28z"></path>
  <path fill="#3b4949" d="M332 209l-8 4-4 5 2 5 10-14z"></path>
  <path fill="#3b4949" d="M107 230l17-7 196-5 2 5-26.309.856-4.621-2.621-8.172.198-5.779 3.027L107 230z"></path>
  <linearGradient id="g" x1="-4271.04" x2="-4126.54" y1="304.781" y2="304.781" gradientTransform="translate(4458.79 -98.281)" gradientUnits="userSpaceOnUse">
    <stop offset="0" stop-color="#a4abb3"></stop>
    <stop offset="1" stop-color="#969ea2"></stop>
  </linearGradient>
  <path fill="url(#g)" d="M188 205l16-5 75.844 5.333 4.841 2.846 7.972.483 5.18-2.063L332 209l-8 4-136-8z"></path>
  <path fill="#3b4949" d="M188 205l16-5 39-30-17 7-38 28z"></path>
  <linearGradient id="h" x1="-4428.091" x2="-4141.792" y1="264.938" y2="331.093" gradientTransform="translate(4458.79 -98.281)" gradientUnits="userSpaceOnUse">
    <stop offset="0" stop-color="#eaeff2"></stop>
    <stop offset=".18" stop-color="#d3dddf"></stop>
    <stop offset=".56" stop-color="#fff"></stop>
    <stop offset=".83" stop-color="#d3dddf"></stop>
    <stop offset="1" stop-color="#eaeff2"></stop>
  </linearGradient>
  <path fill="url(#h)" stroke="#fff" stroke-linejoin="round" stroke-width=".8" d="M226 177l-38 28 136 8-4 5-196 5 38-28-136-8 4-5 196-5z"></path>
  <path fill="none" stroke="#fff" stroke-linecap="round" stroke-linejoin="round" stroke-width=".8" d="M54.285 176.142L59 179l8.076-.43M18 191l8-4m4-5l-2-5m198 0l17-7m81 43l8-4m-10 14l-2-5m-213 12l17-7m155.844-17.667l4.841 2.846 7.972.483"></path>
  <path fill="none" stroke="#3b4949" stroke-linecap="round" stroke-linejoin="round" stroke-width=".5" d="M297.835 206.597L332 209l-10 14-26.309.856-4.621-2.621-8.172.198-5.779 3.027L107 230l39-30-75.864-5.334-4.842-2.872-7.971-.444-5.134 2.056L18 191l10-14 26.285-.856m18.616-.608L243 170l-39 30 75.844 5.333"></path>
  <path fill="#ebbd22" stroke="#ebbd22" stroke-linejoin="round" stroke-width="1.5" d="M308 406l6-8.5h-35v-44h-13.5c-2.002.013-3.5 1.5-3.5 3.5v49h46zM250 406l6-8.5h-39V383h25l5.5-7.5-30.5.004V362h33l6-8.5h-56V406h50zM177 389.5c17 0 17.5-15 17.5-18s-.5-18-17.5-18h-44V406h13.5c2 0 3.5-1.5 3.5-3.5v-13h27zm-6-27.5c7 0 7.5 8 7.5 9.5s-.5 9.5-7.5 9.5l-21 .004V362h21zM126.5 380c0-19-9.5-28-34-28S58 359 58 380c0 18 8 26.5 27 26.5h14c19 0 27.5-8.5 27.5-26.5zm-34-19c17.5 0 17.5 11 17.5 19s0 19.5-17.5 19.5-18-11.5-18-19.5.5-19 18-19z"></path>
  <linearGradient id="i" x1="69.306" x2="280.405" y1="251.523" y2="148.616" gradientUnits="userSpaceOnUse">
    <stop offset="0" stop-color="#d2d7dd"></stop>
    <stop offset=".304" stop-color="#fff"></stop>
    <stop offset=".577" stop-color="#fff"></stop>
    <stop offset="1" stop-color="#abb5b8"></stop>
  </linearGradient>
  <path fill="url(#i)" stroke="#fff" stroke-linejoin="round" d="M175 82c-65.137 0-118 52.864-118 118 0 65.138 52.863 118 118 118s118-52.862 118-118c0-65.136-52.864-118-118-118zm0 226c-59.854 0-108.375-48.521-108.375-108.375S115.146 91.25 175 91.25s108.375 48.521 108.375 108.375C283.375 259.478 234.853 308 175 308z"></path>
</svg>
